<?xml version="1.0" encoding="utf-8" standalone="no"?>
<!DOCTYPE svg PUBLIC "-//W3C//DTD SVG 1.1//EN"
  "http://www.w3.org/Graphics/SVG/1.1/DTD/svg11.dtd">
<svg xmlns:xlink="http://www.w3.org/1999/xlink" width="792pt" height="360pt" viewBox="0 0 792 360" xmlns="http://www.w3.org/2000/svg" version="1.1">
 <metadata>
  <rdf:RDF xmlns:dc="http://purl.org/dc/elements/1.1/" xmlns:cc="http://creativecommons.org/ns#" xmlns:rdf="http://www.w3.org/1999/02/22-rdf-syntax-ns#">
   <cc:Work>
    <dc:type rdf:resource="http://purl.org/dc/dcmitype/StillImage"/>
    <dc:date>2023-03-31T11:16:16.700341</dc:date>
    <dc:format>image/svg+xml</dc:format>
    <dc:creator>
     <cc:Agent>
      <dc:title>Matplotlib v3.5.2, https://matplotlib.org/</dc:title>
     </cc:Agent>
    </dc:creator>
   </cc:Work>
  </rdf:RDF>
 </metadata>
 <defs>
  <style type="text/css">*{stroke-linejoin: round; stroke-linecap: butt}</style>
 </defs>
 <g id="figure_1">
  <g id="patch_1">
   <path d="M 0 360 
L 792 360 
L 792 0 
L 0 0 
z
" style="fill: #ffffff"/>
  </g>
  <g id="axes_1">
   <g id="patch_2">
    <path d="M 67.52 298.456 
L 390.6 298.456 
L 390.6 10.8 
L 67.52 10.8 
z
" style="fill: #ffffff"/>
   </g>
   <g id="patch_3">
    <path d="M 82.205455 298.456 
L 137.772039 298.456 
L 137.772039 264.539988 
L 82.205455 264.539988 
z
" clip-path="url(#p467395addd)" style="fill: #ffd940"/>
   </g>
   <g id="patch_4">
    <path d="M 161.58629 298.456 
L 217.152875 298.456 
L 217.152875 253.636456 
L 161.58629 253.636456 
z
" clip-path="url(#p467395addd)" style="fill: #ffd940"/>
   </g>
   <g id="patch_5">
    <path d="M 240.967125 298.456 
L 296.53371 298.456 
L 296.53371 170.901111 
L 240.967125 170.901111 
z
" clip-path="url(#p467395addd)" style="fill: #ffd940"/>
   </g>
   <g id="patch_6">
    <path d="M 320.347961 298.456 
L 375.914545 298.456 
L 375.914545 32.059148 
L 320.347961 32.059148 
z
" clip-path="url(#p467395addd)" style="fill: #ffd940"/>
   </g>
   <g id="matplotlib.axis_1">
    <g id="xtick_1">
     <g id="line2d_1">
      <defs>
       <path id="m265927c2ab" d="M 0 0 
L 0 3.5 
" style="stroke: #000000; stroke-width: 0.8"/>
      </defs>
      <g>
       <use xlink:href="#m265927c2ab" x="109.988747" y="298.456" style="stroke: #000000; stroke-width: 0.8"/>
      </g>
     </g>
     <g id="text_1">
      <!-- 0 -->
      <g transform="translate(104.262497 319.133188)scale(0.18 -0.18)">
       <defs>
        <path id="DejaVuSans-30" d="M 2034 4250 
Q 1547 4250 1301 3770 
Q 1056 3291 1056 2328 
Q 1056 1369 1301 889 
Q 1547 409 2034 409 
Q 2525 409 2770 889 
Q 3016 1369 3016 2328 
Q 3016 3291 2770 3770 
Q 2525 4250 2034 4250 
z
M 2034 4750 
Q 2819 4750 3233 4129 
Q 3647 3509 3647 2328 
Q 3647 1150 3233 529 
Q 2819 -91 2034 -91 
Q 1250 -91 836 529 
Q 422 1150 422 2328 
Q 422 3509 836 4129 
Q 1250 4750 2034 4750 
z
" transform="scale(0.015625)"/>
       </defs>
       <use xlink:href="#DejaVuSans-30"/>
      </g>
     </g>
    </g>
    <g id="xtick_2">
     <g id="line2d_2">
      <g>
       <use xlink:href="#m265927c2ab" x="189.369582" y="298.456" style="stroke: #000000; stroke-width: 0.8"/>
      </g>
     </g>
     <g id="text_2">
      <!-- $10^{-1}$ -->
      <g transform="translate(168.219582 319.133188)scale(0.18 -0.18)">
       <defs>
        <path id="DejaVuSans-31" d="M 794 531 
L 1825 531 
L 1825 4091 
L 703 3866 
L 703 4441 
L 1819 4666 
L 2450 4666 
L 2450 531 
L 3481 531 
L 3481 0 
L 794 0 
L 794 531 
z
" transform="scale(0.015625)"/>
        <path id="DejaVuSans-2212" d="M 678 2272 
L 4684 2272 
L 4684 1741 
L 678 1741 
L 678 2272 
z
" transform="scale(0.015625)"/>
       </defs>
       <use xlink:href="#DejaVuSans-31" transform="translate(0 0.684375)"/>
       <use xlink:href="#DejaVuSans-30" transform="translate(63.623047 0.684375)"/>
       <use xlink:href="#DejaVuSans-2212" transform="translate(128.203125 38.965625)scale(0.7)"/>
       <use xlink:href="#DejaVuSans-31" transform="translate(186.855469 38.965625)scale(0.7)"/>
      </g>
     </g>
    </g>
    <g id="xtick_3">
     <g id="line2d_3">
      <g>
       <use xlink:href="#m265927c2ab" x="268.750418" y="298.456" style="stroke: #000000; stroke-width: 0.8"/>
      </g>
     </g>
     <g id="text_3">
      <!-- $10^0$ -->
      <g transform="translate(252.910418 319.133188)scale(0.18 -0.18)">
       <use xlink:href="#DejaVuSans-31" transform="translate(0 0.765625)"/>
       <use xlink:href="#DejaVuSans-30" transform="translate(63.623047 0.765625)"/>
       <use xlink:href="#DejaVuSans-30" transform="translate(128.203125 39.046875)scale(0.7)"/>
      </g>
     </g>
    </g>
    <g id="xtick_4">
     <g id="line2d_4">
      <g>
       <use xlink:href="#m265927c2ab" x="348.131253" y="298.456" style="stroke: #000000; stroke-width: 0.8"/>
      </g>
     </g>
     <g id="text_4">
      <!-- $10^1$ -->
      <g transform="translate(332.291253 319.133188)scale(0.18 -0.18)">
       <use xlink:href="#DejaVuSans-31" transform="translate(0 0.684375)"/>
       <use xlink:href="#DejaVuSans-30" transform="translate(63.623047 0.684375)"/>
       <use xlink:href="#DejaVuSans-31" transform="translate(128.203125 38.965625)scale(0.7)"/>
      </g>
     </g>
    </g>
    <g id="text_5">
     <!-- [ABA] (μM) -->
     <g transform="translate(166.888125 342.0735)scale(0.2 -0.2)">
      <defs>
       <path id="DejaVuSans-Bold-5b" d="M 550 4863 
L 2491 4863 
L 2491 4159 
L 1613 4159 
L 1613 -141 
L 2491 -141 
L 2491 -844 
L 550 -844 
L 550 4863 
z
" transform="scale(0.015625)"/>
       <path id="DejaVuSans-Bold-41" d="M 3419 850 
L 1538 850 
L 1241 0 
L 31 0 
L 1759 4666 
L 3194 4666 
L 4922 0 
L 3713 0 
L 3419 850 
z
M 1838 1716 
L 3116 1716 
L 2478 3572 
L 1838 1716 
z
" transform="scale(0.015625)"/>
       <path id="DejaVuSans-Bold-42" d="M 2456 2859 
Q 2741 2859 2887 2984 
Q 3034 3109 3034 3353 
Q 3034 3594 2887 3720 
Q 2741 3847 2456 3847 
L 1791 3847 
L 1791 2859 
L 2456 2859 
z
M 2497 819 
Q 2859 819 3042 972 
Q 3225 1125 3225 1434 
Q 3225 1738 3044 1889 
Q 2863 2041 2497 2041 
L 1791 2041 
L 1791 819 
L 2497 819 
z
M 3616 2497 
Q 4003 2384 4215 2081 
Q 4428 1778 4428 1338 
Q 4428 663 3972 331 
Q 3516 0 2584 0 
L 588 0 
L 588 4666 
L 2394 4666 
Q 3366 4666 3802 4372 
Q 4238 4078 4238 3431 
Q 4238 3091 4078 2852 
Q 3919 2613 3616 2497 
z
" transform="scale(0.015625)"/>
       <path id="DejaVuSans-Bold-5d" d="M 2375 -844 
L 434 -844 
L 434 -141 
L 1313 -141 
L 1313 4159 
L 434 4159 
L 434 4863 
L 2375 4863 
L 2375 -844 
z
" transform="scale(0.015625)"/>
       <path id="DejaVuSans-Bold-20" transform="scale(0.015625)"/>
       <path id="DejaVuSans-Bold-28" d="M 2413 -844 
L 1484 -844 
Q 1006 -72 778 623 
Q 550 1319 550 2003 
Q 550 2688 779 3389 
Q 1009 4091 1484 4856 
L 2413 4856 
Q 2013 4116 1813 3408 
Q 1613 2700 1613 2009 
Q 1613 1319 1811 609 
Q 2009 -100 2413 -844 
z
" transform="scale(0.015625)"/>
       <path id="DejaVuSans-Bold-3bc" d="M 544 -1338 
L 544 3500 
L 1672 3500 
L 1672 1466 
Q 1672 1103 1828 926 
Q 1984 750 2303 750 
Q 2625 750 2781 926 
Q 2938 1103 2938 1466 
L 2938 3500 
L 4063 3500 
L 4063 1159 
Q 4063 938 4114 850 
Q 4166 763 4288 763 
Q 4344 763 4395 778 
Q 4447 794 4506 831 
L 4506 50 
Q 4341 -22 4195 -56 
Q 4050 -91 3909 -91 
Q 3631 -91 3454 26 
Q 3278 144 3169 403 
Q 3022 156 2811 32 
Q 2600 -91 2322 -91 
Q 2091 -91 1928 -17 
Q 1766 56 1672 206 
L 1672 -1338 
L 544 -1338 
z
" transform="scale(0.015625)"/>
       <path id="DejaVuSans-Bold-4d" d="M 588 4666 
L 2119 4666 
L 3181 2169 
L 4250 4666 
L 5778 4666 
L 5778 0 
L 4641 0 
L 4641 3413 
L 3566 897 
L 2803 897 
L 1728 3413 
L 1728 0 
L 588 0 
L 588 4666 
z
" transform="scale(0.015625)"/>
       <path id="DejaVuSans-Bold-29" d="M 513 -844 
Q 913 -100 1113 609 
Q 1313 1319 1313 2009 
Q 1313 2700 1113 3408 
Q 913 4116 513 4856 
L 1441 4856 
Q 1916 4091 2145 3389 
Q 2375 2688 2375 2003 
Q 2375 1319 2147 623 
Q 1919 -72 1441 -844 
L 513 -844 
z
" transform="scale(0.015625)"/>
      </defs>
      <use xlink:href="#DejaVuSans-Bold-5b"/>
      <use xlink:href="#DejaVuSans-Bold-41" x="45.703125"/>
      <use xlink:href="#DejaVuSans-Bold-42" x="123.095703"/>
      <use xlink:href="#DejaVuSans-Bold-41" x="199.316406"/>
      <use xlink:href="#DejaVuSans-Bold-5d" x="276.708984"/>
      <use xlink:href="#DejaVuSans-Bold-20" x="322.412109"/>
      <use xlink:href="#DejaVuSans-Bold-28" x="357.226562"/>
      <use xlink:href="#DejaVuSans-Bold-3bc" x="402.929688"/>
      <use xlink:href="#DejaVuSans-Bold-4d" x="476.513672"/>
      <use xlink:href="#DejaVuSans-Bold-29" x="576.025391"/>
     </g>
    </g>
   </g>
   <g id="matplotlib.axis_2">
    <g id="ytick_1">
     <g id="line2d_5">
      <defs>
       <path id="m2bbd23e075" d="M 0 0 
L -3.5 0 
" style="stroke: #000000; stroke-width: 0.8"/>
      </defs>
      <g>
       <use xlink:href="#m2bbd23e075" x="67.52" y="298.456" style="stroke: #000000; stroke-width: 0.8"/>
      </g>
     </g>
     <g id="text_6">
      <!-- 0 -->
      <g transform="translate(54.1575 302.255219)scale(0.1 -0.1)">
       <use xlink:href="#DejaVuSans-30"/>
      </g>
     </g>
    </g>
    <g id="ytick_2">
     <g id="line2d_6">
      <g>
       <use xlink:href="#m2bbd23e075" x="67.52" y="257.362286" style="stroke: #000000; stroke-width: 0.8"/>
      </g>
     </g>
     <g id="text_7">
      <!-- 500 -->
      <g transform="translate(41.4325 261.161504)scale(0.1 -0.1)">
       <defs>
        <path id="DejaVuSans-35" d="M 691 4666 
L 3169 4666 
L 3169 4134 
L 1269 4134 
L 1269 2991 
Q 1406 3038 1543 3061 
Q 1681 3084 1819 3084 
Q 2600 3084 3056 2656 
Q 3513 2228 3513 1497 
Q 3513 744 3044 326 
Q 2575 -91 1722 -91 
Q 1428 -91 1123 -41 
Q 819 9 494 109 
L 494 744 
Q 775 591 1075 516 
Q 1375 441 1709 441 
Q 2250 441 2565 725 
Q 2881 1009 2881 1497 
Q 2881 1984 2565 2268 
Q 2250 2553 1709 2553 
Q 1456 2553 1204 2497 
Q 953 2441 691 2322 
L 691 4666 
z
" transform="scale(0.015625)"/>
       </defs>
       <use xlink:href="#DejaVuSans-35"/>
       <use xlink:href="#DejaVuSans-30" x="63.623047"/>
       <use xlink:href="#DejaVuSans-30" x="127.246094"/>
      </g>
     </g>
    </g>
    <g id="ytick_3">
     <g id="line2d_7">
      <g>
       <use xlink:href="#m2bbd23e075" x="67.52" y="216.268571" style="stroke: #000000; stroke-width: 0.8"/>
      </g>
     </g>
     <g id="text_8">
      <!-- 1000 -->
      <g transform="translate(35.07 220.06779)scale(0.1 -0.1)">
       <use xlink:href="#DejaVuSans-31"/>
       <use xlink:href="#DejaVuSans-30" x="63.623047"/>
       <use xlink:href="#DejaVuSans-30" x="127.246094"/>
       <use xlink:href="#DejaVuSans-30" x="190.869141"/>
      </g>
     </g>
    </g>
    <g id="ytick_4">
     <g id="line2d_8">
      <g>
       <use xlink:href="#m2bbd23e075" x="67.52" y="175.174857" style="stroke: #000000; stroke-width: 0.8"/>
      </g>
     </g>
     <g id="text_9">
      <!-- 1500 -->
      <g transform="translate(35.07 178.974076)scale(0.1 -0.1)">
       <use xlink:href="#DejaVuSans-31"/>
       <use xlink:href="#DejaVuSans-35" x="63.623047"/>
       <use xlink:href="#DejaVuSans-30" x="127.246094"/>
       <use xlink:href="#DejaVuSans-30" x="190.869141"/>
      </g>
     </g>
    </g>
    <g id="ytick_5">
     <g id="line2d_9">
      <g>
       <use xlink:href="#m2bbd23e075" x="67.52" y="134.081143" style="stroke: #000000; stroke-width: 0.8"/>
      </g>
     </g>
     <g id="text_10">
      <!-- 2000 -->
      <g transform="translate(35.07 137.880362)scale(0.1 -0.1)">
       <defs>
        <path id="DejaVuSans-32" d="M 1228 531 
L 3431 531 
L 3431 0 
L 469 0 
L 469 531 
Q 828 903 1448 1529 
Q 2069 2156 2228 2338 
Q 2531 2678 2651 2914 
Q 2772 3150 2772 3378 
Q 2772 3750 2511 3984 
Q 2250 4219 1831 4219 
Q 1534 4219 1204 4116 
Q 875 4013 500 3803 
L 500 4441 
Q 881 4594 1212 4672 
Q 1544 4750 1819 4750 
Q 2544 4750 2975 4387 
Q 3406 4025 3406 3419 
Q 3406 3131 3298 2873 
Q 3191 2616 2906 2266 
Q 2828 2175 2409 1742 
Q 1991 1309 1228 531 
z
" transform="scale(0.015625)"/>
       </defs>
       <use xlink:href="#DejaVuSans-32"/>
       <use xlink:href="#DejaVuSans-30" x="63.623047"/>
       <use xlink:href="#DejaVuSans-30" x="127.246094"/>
       <use xlink:href="#DejaVuSans-30" x="190.869141"/>
      </g>
     </g>
    </g>
    <g id="ytick_6">
     <g id="line2d_10">
      <g>
       <use xlink:href="#m2bbd23e075" x="67.52" y="92.987429" style="stroke: #000000; stroke-width: 0.8"/>
      </g>
     </g>
     <g id="text_11">
      <!-- 2500 -->
      <g transform="translate(35.07 96.786647)scale(0.1 -0.1)">
       <use xlink:href="#DejaVuSans-32"/>
       <use xlink:href="#DejaVuSans-35" x="63.623047"/>
       <use xlink:href="#DejaVuSans-30" x="127.246094"/>
       <use xlink:href="#DejaVuSans-30" x="190.869141"/>
      </g>
     </g>
    </g>
    <g id="ytick_7">
     <g id="line2d_11">
      <g>
       <use xlink:href="#m2bbd23e075" x="67.52" y="51.893714" style="stroke: #000000; stroke-width: 0.8"/>
      </g>
     </g>
     <g id="text_12">
      <!-- 3000 -->
      <g transform="translate(35.07 55.692933)scale(0.1 -0.1)">
       <defs>
        <path id="DejaVuSans-33" d="M 2597 2516 
Q 3050 2419 3304 2112 
Q 3559 1806 3559 1356 
Q 3559 666 3084 287 
Q 2609 -91 1734 -91 
Q 1441 -91 1130 -33 
Q 819 25 488 141 
L 488 750 
Q 750 597 1062 519 
Q 1375 441 1716 441 
Q 2309 441 2620 675 
Q 2931 909 2931 1356 
Q 2931 1769 2642 2001 
Q 2353 2234 1838 2234 
L 1294 2234 
L 1294 2753 
L 1863 2753 
Q 2328 2753 2575 2939 
Q 2822 3125 2822 3475 
Q 2822 3834 2567 4026 
Q 2313 4219 1838 4219 
Q 1578 4219 1281 4162 
Q 984 4106 628 3988 
L 628 4550 
Q 988 4650 1302 4700 
Q 1616 4750 1894 4750 
Q 2613 4750 3031 4423 
Q 3450 4097 3450 3541 
Q 3450 3153 3228 2886 
Q 3006 2619 2597 2516 
z
" transform="scale(0.015625)"/>
       </defs>
       <use xlink:href="#DejaVuSans-33"/>
       <use xlink:href="#DejaVuSans-30" x="63.623047"/>
       <use xlink:href="#DejaVuSans-30" x="127.246094"/>
       <use xlink:href="#DejaVuSans-30" x="190.869141"/>
      </g>
     </g>
    </g>
    <g id="ytick_8">
     <g id="line2d_12">
      <g>
       <use xlink:href="#m2bbd23e075" x="67.52" y="10.8" style="stroke: #000000; stroke-width: 0.8"/>
      </g>
     </g>
     <g id="text_13">
      <!-- 3500 -->
      <g transform="translate(35.07 14.599219)scale(0.1 -0.1)">
       <use xlink:href="#DejaVuSans-33"/>
       <use xlink:href="#DejaVuSans-35" x="63.623047"/>
       <use xlink:href="#DejaVuSans-30" x="127.246094"/>
       <use xlink:href="#DejaVuSans-30" x="190.869141"/>
      </g>
     </g>
    </g>
    <g id="text_14">
     <!-- RFP (au) -->
     <g transform="translate(26.910625 202.978)rotate(-90)scale(0.2 -0.2)">
      <defs>
       <path id="DejaVuSans-Bold-52" d="M 2297 2597 
Q 2675 2597 2839 2737 
Q 3003 2878 3003 3200 
Q 3003 3519 2839 3656 
Q 2675 3794 2297 3794 
L 1791 3794 
L 1791 2597 
L 2297 2597 
z
M 1791 1766 
L 1791 0 
L 588 0 
L 588 4666 
L 2425 4666 
Q 3347 4666 3776 4356 
Q 4206 4047 4206 3378 
Q 4206 2916 3982 2619 
Q 3759 2322 3309 2181 
Q 3556 2125 3751 1926 
Q 3947 1728 4147 1325 
L 4800 0 
L 3519 0 
L 2950 1159 
Q 2778 1509 2601 1637 
Q 2425 1766 2131 1766 
L 1791 1766 
z
" transform="scale(0.015625)"/>
       <path id="DejaVuSans-Bold-46" d="M 588 4666 
L 3834 4666 
L 3834 3756 
L 1791 3756 
L 1791 2888 
L 3713 2888 
L 3713 1978 
L 1791 1978 
L 1791 0 
L 588 0 
L 588 4666 
z
" transform="scale(0.015625)"/>
       <path id="DejaVuSans-Bold-50" d="M 588 4666 
L 2584 4666 
Q 3475 4666 3951 4270 
Q 4428 3875 4428 3144 
Q 4428 2409 3951 2014 
Q 3475 1619 2584 1619 
L 1791 1619 
L 1791 0 
L 588 0 
L 588 4666 
z
M 1791 3794 
L 1791 2491 
L 2456 2491 
Q 2806 2491 2997 2661 
Q 3188 2831 3188 3144 
Q 3188 3456 2997 3625 
Q 2806 3794 2456 3794 
L 1791 3794 
z
" transform="scale(0.015625)"/>
       <path id="DejaVuSans-Bold-61" d="M 2106 1575 
Q 1756 1575 1579 1456 
Q 1403 1338 1403 1106 
Q 1403 894 1545 773 
Q 1688 653 1941 653 
Q 2256 653 2472 879 
Q 2688 1106 2688 1447 
L 2688 1575 
L 2106 1575 
z
M 3816 1997 
L 3816 0 
L 2688 0 
L 2688 519 
Q 2463 200 2181 54 
Q 1900 -91 1497 -91 
Q 953 -91 614 226 
Q 275 544 275 1050 
Q 275 1666 698 1953 
Q 1122 2241 2028 2241 
L 2688 2241 
L 2688 2328 
Q 2688 2594 2478 2717 
Q 2269 2841 1825 2841 
Q 1466 2841 1156 2769 
Q 847 2697 581 2553 
L 581 3406 
Q 941 3494 1303 3539 
Q 1666 3584 2028 3584 
Q 2975 3584 3395 3211 
Q 3816 2838 3816 1997 
z
" transform="scale(0.015625)"/>
       <path id="DejaVuSans-Bold-75" d="M 500 1363 
L 500 3500 
L 1625 3500 
L 1625 3150 
Q 1625 2866 1622 2436 
Q 1619 2006 1619 1863 
Q 1619 1441 1641 1255 
Q 1663 1069 1716 984 
Q 1784 875 1895 815 
Q 2006 756 2150 756 
Q 2500 756 2700 1025 
Q 2900 1294 2900 1772 
L 2900 3500 
L 4019 3500 
L 4019 0 
L 2900 0 
L 2900 506 
Q 2647 200 2364 54 
Q 2081 -91 1741 -91 
Q 1134 -91 817 281 
Q 500 653 500 1363 
z
" transform="scale(0.015625)"/>
      </defs>
      <use xlink:href="#DejaVuSans-Bold-52"/>
      <use xlink:href="#DejaVuSans-Bold-46" x="77.001953"/>
      <use xlink:href="#DejaVuSans-Bold-50" x="145.3125"/>
      <use xlink:href="#DejaVuSans-Bold-20" x="218.603516"/>
      <use xlink:href="#DejaVuSans-Bold-28" x="253.417969"/>
      <use xlink:href="#DejaVuSans-Bold-61" x="299.121094"/>
      <use xlink:href="#DejaVuSans-Bold-75" x="366.601562"/>
      <use xlink:href="#DejaVuSans-Bold-29" x="437.792969"/>
     </g>
    </g>
   </g>
   <g id="LineCollection_1">
    <path d="M 109.988747 266.856352 
L 109.988747 262.223624 
" clip-path="url(#p467395addd)" style="fill: none; stroke: #000000; stroke-width: 1.5"/>
    <path d="M 189.369582 257.005472 
L 189.369582 250.267439 
" clip-path="url(#p467395addd)" style="fill: none; stroke: #000000; stroke-width: 1.5"/>
    <path d="M 268.750418 211.807999 
L 268.750418 129.994222 
" clip-path="url(#p467395addd)" style="fill: none; stroke: #000000; stroke-width: 1.5"/>
    <path d="M 348.131253 47.442109 
L 348.131253 16.676188 
" clip-path="url(#p467395addd)" style="fill: none; stroke: #000000; stroke-width: 1.5"/>
   </g>
   <g id="patch_7">
    <path d="M 67.52 298.456 
L 67.52 10.8 
" style="fill: none; stroke: #000000; stroke-width: 0.8; stroke-linejoin: miter; stroke-linecap: square"/>
   </g>
   <g id="patch_8">
    <path d="M 390.6 298.456 
L 390.6 10.8 
" style="fill: none; stroke: #000000; stroke-width: 0.8; stroke-linejoin: miter; stroke-linecap: square"/>
   </g>
   <g id="patch_9">
    <path d="M 67.52 298.456 
L 390.6 298.456 
" style="fill: none; stroke: #000000; stroke-width: 0.8; stroke-linejoin: miter; stroke-linecap: square"/>
   </g>
   <g id="patch_10">
    <path d="M 67.52 10.8 
L 390.6 10.8 
" style="fill: none; stroke: #000000; stroke-width: 0.8; stroke-linejoin: miter; stroke-linecap: square"/>
   </g>
  </g>
  <g id="axes_2">
   <g id="patch_11">
    <path d="M 458.12 298.456 
L 781.2 298.456 
L 781.2 10.8 
L 458.12 10.8 
z
" style="fill: #ffffff"/>
   </g>
   <g id="patch_12">
    <path d="M 472.805455 298.456 
L 508.874992 298.456 
L 508.874992 279.004975 
L 472.805455 279.004975 
z
" clip-path="url(#pc489356617)" style="fill: #54a1ff"/>
   </g>
   <g id="patch_13">
    <path d="M 524.333365 298.456 
L 560.402903 298.456 
L 560.402903 272.594356 
L 524.333365 272.594356 
z
" clip-path="url(#pc489356617)" style="fill: #54a1ff"/>
   </g>
   <g id="patch_14">
    <path d="M 575.861276 298.456 
L 611.930813 298.456 
L 611.930813 249.198334 
L 575.861276 249.198334 
z
" clip-path="url(#pc489356617)" style="fill: #54a1ff"/>
   </g>
   <g id="patch_15">
    <path d="M 627.389187 298.456 
L 663.458724 298.456 
L 663.458724 235.6922 
L 627.389187 235.6922 
z
" clip-path="url(#pc489356617)" style="fill: #54a1ff"/>
   </g>
   <g id="patch_16">
    <path d="M 678.917097 298.456 
L 714.986635 298.456 
L 714.986635 183.448392 
L 678.917097 183.448392 
z
" clip-path="url(#pc489356617)" style="fill: #54a1ff"/>
   </g>
   <g id="patch_17">
    <path d="M 730.445008 298.456 
L 766.514545 298.456 
L 766.514545 123.533756 
L 730.445008 123.533756 
z
" clip-path="url(#pc489356617)" style="fill: #54a1ff"/>
   </g>
   <g id="matplotlib.axis_3">
    <g id="xtick_5">
     <g id="line2d_13">
      <g>
       <use xlink:href="#m265927c2ab" x="490.840223" y="298.456" style="stroke: #000000; stroke-width: 0.8"/>
      </g>
     </g>
     <g id="text_15">
      <!-- 0 -->
      <g transform="translate(485.113973 319.133188)scale(0.18 -0.18)">
       <use xlink:href="#DejaVuSans-30"/>
      </g>
     </g>
    </g>
    <g id="xtick_6">
     <g id="line2d_14">
      <g>
       <use xlink:href="#m265927c2ab" x="542.368134" y="298.456" style="stroke: #000000; stroke-width: 0.8"/>
      </g>
     </g>
     <g id="text_16">
      <!-- $10^{-1}$ -->
      <g transform="translate(521.218134 319.133188)scale(0.18 -0.18)">
       <use xlink:href="#DejaVuSans-31" transform="translate(0 0.684375)"/>
       <use xlink:href="#DejaVuSans-30" transform="translate(63.623047 0.684375)"/>
       <use xlink:href="#DejaVuSans-2212" transform="translate(128.203125 38.965625)scale(0.7)"/>
       <use xlink:href="#DejaVuSans-31" transform="translate(186.855469 38.965625)scale(0.7)"/>
      </g>
     </g>
    </g>
    <g id="xtick_7">
     <g id="line2d_15">
      <g>
       <use xlink:href="#m265927c2ab" x="593.896045" y="298.456" style="stroke: #000000; stroke-width: 0.8"/>
      </g>
     </g>
     <g id="text_17">
      <!-- $10^0$ -->
      <g transform="translate(578.056045 319.133188)scale(0.18 -0.18)">
       <use xlink:href="#DejaVuSans-31" transform="translate(0 0.765625)"/>
       <use xlink:href="#DejaVuSans-30" transform="translate(63.623047 0.765625)"/>
       <use xlink:href="#DejaVuSans-30" transform="translate(128.203125 39.046875)scale(0.7)"/>
      </g>
     </g>
    </g>
    <g id="xtick_8">
     <g id="line2d_16">
      <g>
       <use xlink:href="#m265927c2ab" x="645.423955" y="298.456" style="stroke: #000000; stroke-width: 0.8"/>
      </g>
     </g>
     <g id="text_18">
      <!-- $10^1$ -->
      <g transform="translate(629.583955 319.133188)scale(0.18 -0.18)">
       <use xlink:href="#DejaVuSans-31" transform="translate(0 0.684375)"/>
       <use xlink:href="#DejaVuSans-30" transform="translate(63.623047 0.684375)"/>
       <use xlink:href="#DejaVuSans-31" transform="translate(128.203125 38.965625)scale(0.7)"/>
      </g>
     </g>
    </g>
    <g id="xtick_9">
     <g id="line2d_17">
      <g>
       <use xlink:href="#m265927c2ab" x="696.951866" y="298.456" style="stroke: #000000; stroke-width: 0.8"/>
      </g>
     </g>
     <g id="text_19">
      <!-- $10^2$ -->
      <g transform="translate(681.111866 319.133188)scale(0.18 -0.18)">
       <use xlink:href="#DejaVuSans-31" transform="translate(0 0.765625)"/>
       <use xlink:href="#DejaVuSans-30" transform="translate(63.623047 0.765625)"/>
       <use xlink:href="#DejaVuSans-32" transform="translate(128.203125 39.046875)scale(0.7)"/>
      </g>
     </g>
    </g>
    <g id="xtick_10">
     <g id="line2d_18">
      <g>
       <use xlink:href="#m265927c2ab" x="748.479777" y="298.456" style="stroke: #000000; stroke-width: 0.8"/>
      </g>
     </g>
     <g id="text_20">
      <!-- $10^3$ -->
      <g transform="translate(732.639777 319.133188)scale(0.18 -0.18)">
       <use xlink:href="#DejaVuSans-31" transform="translate(0 0.765625)"/>
       <use xlink:href="#DejaVuSans-30" transform="translate(63.623047 0.765625)"/>
       <use xlink:href="#DejaVuSans-33" transform="translate(128.203125 39.046875)scale(0.7)"/>
      </g>
     </g>
    </g>
    <g id="text_21">
     <!-- [GA] (μM) -->
     <g transform="translate(564.64125 342.0735)scale(0.2 -0.2)">
      <defs>
       <path id="DejaVuSans-Bold-47" d="M 4781 347 
Q 4331 128 3847 18 
Q 3363 -91 2847 -91 
Q 1681 -91 1000 561 
Q 319 1213 319 2328 
Q 319 3456 1012 4103 
Q 1706 4750 2913 4750 
Q 3378 4750 3804 4662 
Q 4231 4575 4609 4403 
L 4609 3438 
Q 4219 3659 3833 3768 
Q 3447 3878 3059 3878 
Q 2341 3878 1952 3476 
Q 1563 3075 1563 2328 
Q 1563 1588 1938 1184 
Q 2313 781 3003 781 
Q 3191 781 3352 804 
Q 3513 828 3641 878 
L 3641 1784 
L 2906 1784 
L 2906 2591 
L 4781 2591 
L 4781 347 
z
" transform="scale(0.015625)"/>
      </defs>
      <use xlink:href="#DejaVuSans-Bold-5b"/>
      <use xlink:href="#DejaVuSans-Bold-47" x="45.703125"/>
      <use xlink:href="#DejaVuSans-Bold-41" x="127.783203"/>
      <use xlink:href="#DejaVuSans-Bold-5d" x="205.175781"/>
      <use xlink:href="#DejaVuSans-Bold-20" x="250.878906"/>
      <use xlink:href="#DejaVuSans-Bold-28" x="285.693359"/>
      <use xlink:href="#DejaVuSans-Bold-3bc" x="331.396484"/>
      <use xlink:href="#DejaVuSans-Bold-4d" x="404.980469"/>
      <use xlink:href="#DejaVuSans-Bold-29" x="504.492188"/>
     </g>
    </g>
   </g>
   <g id="matplotlib.axis_4">
    <g id="ytick_9">
     <g id="line2d_19">
      <g>
       <use xlink:href="#m2bbd23e075" x="458.12" y="298.456" style="stroke: #000000; stroke-width: 0.8"/>
      </g>
     </g>
     <g id="text_22">
      <!-- 0 -->
      <g transform="translate(444.7575 302.255219)scale(0.1 -0.1)">
       <use xlink:href="#DejaVuSans-30"/>
      </g>
     </g>
    </g>
    <g id="ytick_10">
     <g id="line2d_20">
      <g>
       <use xlink:href="#m2bbd23e075" x="458.12" y="257.362286" style="stroke: #000000; stroke-width: 0.8"/>
      </g>
     </g>
     <g id="text_23">
      <!-- 500 -->
      <g transform="translate(432.0325 261.161504)scale(0.1 -0.1)">
       <use xlink:href="#DejaVuSans-35"/>
       <use xlink:href="#DejaVuSans-30" x="63.623047"/>
       <use xlink:href="#DejaVuSans-30" x="127.246094"/>
      </g>
     </g>
    </g>
    <g id="ytick_11">
     <g id="line2d_21">
      <g>
       <use xlink:href="#m2bbd23e075" x="458.12" y="216.268571" style="stroke: #000000; stroke-width: 0.8"/>
      </g>
     </g>
     <g id="text_24">
      <!-- 1000 -->
      <g transform="translate(425.67 220.06779)scale(0.1 -0.1)">
       <use xlink:href="#DejaVuSans-31"/>
       <use xlink:href="#DejaVuSans-30" x="63.623047"/>
       <use xlink:href="#DejaVuSans-30" x="127.246094"/>
       <use xlink:href="#DejaVuSans-30" x="190.869141"/>
      </g>
     </g>
    </g>
    <g id="ytick_12">
     <g id="line2d_22">
      <g>
       <use xlink:href="#m2bbd23e075" x="458.12" y="175.174857" style="stroke: #000000; stroke-width: 0.8"/>
      </g>
     </g>
     <g id="text_25">
      <!-- 1500 -->
      <g transform="translate(425.67 178.974076)scale(0.1 -0.1)">
       <use xlink:href="#DejaVuSans-31"/>
       <use xlink:href="#DejaVuSans-35" x="63.623047"/>
       <use xlink:href="#DejaVuSans-30" x="127.246094"/>
       <use xlink:href="#DejaVuSans-30" x="190.869141"/>
      </g>
     </g>
    </g>
    <g id="ytick_13">
     <g id="line2d_23">
      <g>
       <use xlink:href="#m2bbd23e075" x="458.12" y="134.081143" style="stroke: #000000; stroke-width: 0.8"/>
      </g>
     </g>
     <g id="text_26">
      <!-- 2000 -->
      <g transform="translate(425.67 137.880362)scale(0.1 -0.1)">
       <use xlink:href="#DejaVuSans-32"/>
       <use xlink:href="#DejaVuSans-30" x="63.623047"/>
       <use xlink:href="#DejaVuSans-30" x="127.246094"/>
       <use xlink:href="#DejaVuSans-30" x="190.869141"/>
      </g>
     </g>
    </g>
    <g id="ytick_14">
     <g id="line2d_24">
      <g>
       <use xlink:href="#m2bbd23e075" x="458.12" y="92.987429" style="stroke: #000000; stroke-width: 0.8"/>
      </g>
     </g>
     <g id="text_27">
      <!-- 2500 -->
      <g transform="translate(425.67 96.786647)scale(0.1 -0.1)">
       <use xlink:href="#DejaVuSans-32"/>
       <use xlink:href="#DejaVuSans-35" x="63.623047"/>
       <use xlink:href="#DejaVuSans-30" x="127.246094"/>
       <use xlink:href="#DejaVuSans-30" x="190.869141"/>
      </g>
     </g>
    </g>
    <g id="ytick_15">
     <g id="line2d_25">
      <g>
       <use xlink:href="#m2bbd23e075" x="458.12" y="51.893714" style="stroke: #000000; stroke-width: 0.8"/>
      </g>
     </g>
     <g id="text_28">
      <!-- 3000 -->
      <g transform="translate(425.67 55.692933)scale(0.1 -0.1)">
       <use xlink:href="#DejaVuSans-33"/>
       <use xlink:href="#DejaVuSans-30" x="63.623047"/>
       <use xlink:href="#DejaVuSans-30" x="127.246094"/>
       <use xlink:href="#DejaVuSans-30" x="190.869141"/>
      </g>
     </g>
    </g>
    <g id="ytick_16">
     <g id="line2d_26">
      <g>
       <use xlink:href="#m2bbd23e075" x="458.12" y="10.8" style="stroke: #000000; stroke-width: 0.8"/>
      </g>
     </g>
     <g id="text_29">
      <!-- 3500 -->
      <g transform="translate(425.67 14.599219)scale(0.1 -0.1)">
       <use xlink:href="#DejaVuSans-33"/>
       <use xlink:href="#DejaVuSans-35" x="63.623047"/>
       <use xlink:href="#DejaVuSans-30" x="127.246094"/>
       <use xlink:href="#DejaVuSans-30" x="190.869141"/>
      </g>
     </g>
    </g>
    <g id="text_30">
     <!-- RFP (au) -->
     <g transform="translate(417.510625 202.978)rotate(-90)scale(0.2 -0.2)">
      <use xlink:href="#DejaVuSans-Bold-52"/>
      <use xlink:href="#DejaVuSans-Bold-46" x="77.001953"/>
      <use xlink:href="#DejaVuSans-Bold-50" x="145.3125"/>
      <use xlink:href="#DejaVuSans-Bold-20" x="218.603516"/>
      <use xlink:href="#DejaVuSans-Bold-28" x="253.417969"/>
      <use xlink:href="#DejaVuSans-Bold-61" x="299.121094"/>
      <use xlink:href="#DejaVuSans-Bold-75" x="366.601562"/>
      <use xlink:href="#DejaVuSans-Bold-29" x="437.792969"/>
     </g>
    </g>
   </g>
   <g id="LineCollection_2">
    <path d="M 490.840223 281.366106 
L 490.840223 276.643844 
" clip-path="url(#pc489356617)" style="fill: none; stroke: #000000; stroke-width: 1.5"/>
    <path d="M 542.368134 276.770847 
L 542.368134 268.417865 
" clip-path="url(#pc489356617)" style="fill: none; stroke: #000000; stroke-width: 1.5"/>
    <path d="M 593.896045 266.149745 
L 593.896045 232.246924 
" clip-path="url(#pc489356617)" style="fill: none; stroke: #000000; stroke-width: 1.5"/>
    <path d="M 645.423955 240.092363 
L 645.423955 231.292038 
" clip-path="url(#pc489356617)" style="fill: none; stroke: #000000; stroke-width: 1.5"/>
    <path d="M 696.951866 191.427065 
L 696.951866 175.469718 
" clip-path="url(#pc489356617)" style="fill: none; stroke: #000000; stroke-width: 1.5"/>
    <path d="M 748.479777 162.411653 
L 748.479777 84.655859 
" clip-path="url(#pc489356617)" style="fill: none; stroke: #000000; stroke-width: 1.5"/>
   </g>
   <g id="line2d_27">
    <path d="M 490.840223 199.831086 
L 490.840223 199.826976 
L 593.896045 199.826976 
L 593.896045 199.831086 
" clip-path="url(#pc489356617)" style="fill: none; stroke: #000000; stroke-width: 1.5; stroke-linecap: square"/>
   </g>
   <g id="patch_18">
    <path d="M 458.12 298.456 
L 458.12 10.8 
" style="fill: none; stroke: #000000; stroke-width: 0.8; stroke-linejoin: miter; stroke-linecap: square"/>
   </g>
   <g id="patch_19">
    <path d="M 781.2 298.456 
L 781.2 10.8 
" style="fill: none; stroke: #000000; stroke-width: 0.8; stroke-linejoin: miter; stroke-linecap: square"/>
   </g>
   <g id="patch_20">
    <path d="M 458.12 298.456 
L 781.2 298.456 
" style="fill: none; stroke: #000000; stroke-width: 0.8; stroke-linejoin: miter; stroke-linecap: square"/>
   </g>
   <g id="patch_21">
    <path d="M 458.12 10.8 
L 781.2 10.8 
" style="fill: none; stroke: #000000; stroke-width: 0.8; stroke-linejoin: miter; stroke-linecap: square"/>
   </g>
   <g id="text_31">
    <!-- * -->
    <g transform="translate(538.368134 196.499476)scale(0.16 -0.16)">
     <defs>
      <path id="DejaVuSans-2a" d="M 3009 3897 
L 1888 3291 
L 3009 2681 
L 2828 2375 
L 1778 3009 
L 1778 1831 
L 1422 1831 
L 1422 3009 
L 372 2375 
L 191 2681 
L 1313 3291 
L 191 3897 
L 372 4206 
L 1422 3572 
L 1422 4750 
L 1778 4750 
L 1778 3572 
L 2828 4206 
L 3009 3897 
z
" transform="scale(0.015625)"/>
     </defs>
     <use xlink:href="#DejaVuSans-2a"/>
    </g>
   </g>
  </g>
 </g>
 <defs>
  <clipPath id="p467395addd">
   <rect x="67.52" y="10.8" width="323.08" height="287.656"/>
  </clipPath>
  <clipPath id="pc489356617">
   <rect x="458.12" y="10.8" width="323.08" height="287.656"/>
  </clipPath>
 </defs>
</svg>
